HIERARCHY
ROOT Hips
{
	OFFSET 0.000000 0.000000 0.000000
	CHANNELS 6 Xposition Yposition Zposition Zrotation Yrotation Xrotation 
	JOINT LHipJoint
	{
		OFFSET 0.000000 0.000000 0.000000
		CHANNELS 3 Zrotation Yrotation Xrotation
		JOINT LeftUpLeg
		{
			OFFSET 1.363060 -1.794630 0.839290
			CHANNELS 3 Zrotation Yrotation Xrotation
			JOINT LeftLeg
			{
				OFFSET 2.448110 -6.726130 0.000000
				CHANNELS 3 Zrotation Yrotation Xrotation
				JOINT LeftFoot
				{
					OFFSET 2.562200 -7.039590 0.000000
					CHANNELS 3 Zrotation Yrotation Xrotation
					JOINT LeftToeBase
					{
						OFFSET 0.157640 -0.433110 2.322550
						CHANNELS 3 Zrotation Yrotation Xrotation
						End Site
						{
							OFFSET 0.000000 0.000000 0.000000
						}
					}
				}
			}
		}
	}
	JOINT RHipJoint
	{
		OFFSET 0.000000 0.000000 0.000000
		CHANNELS 3 Zrotation Yrotation Xrotation
		JOINT RightUpLeg
		{
			OFFSET -1.305520 -1.794630 0.839290
			CHANNELS 3 Zrotation Yrotation Xrotation
			JOINT RightLeg
			{
				OFFSET -2.542530 -6.985550 0.000000
				CHANNELS 3 Zrotation Yrotation Xrotation
				JOINT RightFoot
				{
					OFFSET -2.568260 -7.056230 0.000000
					CHANNELS 3 Zrotation Yrotation Xrotation
					JOINT RightToeBase
					{
						OFFSET -0.164730 -0.452590 2.363150
						CHANNELS 3 Zrotation Yrotation Xrotation
						End Site
						{
							OFFSET 0.000000 0.000000 0.000000
						}
					}
				}
			}
		}
	}
	JOINT LowerBack
	{
		OFFSET 0.000000 0.000000 0.000000
		CHANNELS 3 Zrotation Yrotation Xrotation
		JOINT Spine
		{
			OFFSET 0.028270 2.035590 -0.193380
			CHANNELS 3 Zrotation Yrotation Xrotation
			JOINT Spine1
			{
				OFFSET 0.056720 2.048850 -0.042750
				CHANNELS 3 Zrotation Yrotation Xrotation
				JOINT Neck
				{
					OFFSET 0.000000 0.000000 0.000000
					CHANNELS 3 Zrotation Yrotation Xrotation
					JOINT Neck1
					{
						OFFSET -0.054170 1.746240 0.172020
						CHANNELS 3 Zrotation Yrotation Xrotation
						JOINT Head
						{
							OFFSET 0.104070 1.761360 -0.123970
							CHANNELS 3 Zrotation Yrotation Xrotation
							End Site
							{
								OFFSET 0.000000 0.000000 0.000000
							}
						}
					}
				}
				JOINT LeftShoulder
				{
					OFFSET 0.000000 0.000000 0.000000
					CHANNELS 3 Zrotation Yrotation Xrotation
					JOINT LeftArm
					{
						OFFSET 3.362410 1.200890 -0.311210
						CHANNELS 3 Zrotation Yrotation Xrotation
						JOINT LeftForeArm
						{
							OFFSET 4.983000 -0.000000 -0.000000
							CHANNELS 3 Zrotation Yrotation Xrotation
							JOINT LeftHand
							{
								OFFSET 3.483560 -0.000000 -0.000000
								CHANNELS 3 Zrotation Yrotation Xrotation
								JOINT LeftFingerBase
								{
									OFFSET 0.000000 0.000000 0.000000
									CHANNELS 3 Zrotation Yrotation Xrotation
									JOINT LeftHandIndex1
									{
										OFFSET 0.715260 -0.000000 -0.000000
										CHANNELS 3 Zrotation Yrotation Xrotation
										End Site
										{
											OFFSET 0.000000 0.000000 0.000000
										}
									}
								}
								JOINT LThumb
								{
									OFFSET 0.000000 0.000000 0.000000
									CHANNELS 3 Zrotation Yrotation Xrotation
									End Site
									{
										OFFSET 0.000000 0.000000 0.000000
									}
								}
							}
						}
					}
				}
				JOINT RightShoulder
				{
					OFFSET 0.000000 0.000000 0.000000
					CHANNELS 3 Zrotation Yrotation Xrotation
					JOINT RightArm
					{
						OFFSET -3.136600 1.374050 -0.404650
						CHANNELS 3 Zrotation Yrotation Xrotation
						JOINT RightForeArm
						{
							OFFSET -5.241900 -0.000000 -0.000000
							CHANNELS 3 Zrotation Yrotation Xrotation
							JOINT RightHand
							{
								OFFSET -3.444170 -0.000000 -0.000000
								CHANNELS 3 Zrotation Yrotation Xrotation
								JOINT RightFingerBase
								{
									OFFSET 0.000000 0.000000 0.000000
									CHANNELS 3 Zrotation Yrotation Xrotation
									JOINT RightHandIndex1
									{
										OFFSET -0.622530 -0.000000 -0.000000
										CHANNELS 3 Zrotation Yrotation Xrotation
										End Site
										{
											OFFSET 0.000000 0.000000 0.000000
										}
									}
								}
								JOINT RThumb
								{
									OFFSET 0.000000 0.000000 0.000000
									CHANNELS 3 Zrotation Yrotation Xrotation
									End Site
									{
										OFFSET 0.000000 0.000000 0.000000
									}
								}
							}
						}
					}
				}
			}
		}
	}
}
MOTION
Frames: 10
Frame Time: 0.008333
2.726010 17.015287 1.434200 -34.042154 75.612650 -22.804511 -10.799431 -0.451121 4.476214 0.986733 2.154307 -44.333898 0.142137 1.122236 37.322171 3.612445 18.239236 -7.360729 0.897700 0.000000 -23.503900 6.411256 -2.496941 4.991383 23.636240 6.720651 -0.568288 4.898512 2.743170 -3.803110 0.211030 4.244060 -9.035082 179.998700 0.000000 -8.676100 5.523279 1.017652 -10.974591 -0.262876 -0.168460 -5.045561 -8.616412 -0.181401 0.161346 12.386579 -8.148003 -6.944833 -4.335165 -0.368481 0.266709 0.000000 0.000000 0.000000 -1.730637 13.338425 1.271005 -60.128025 12.347728 5.048020 -3.034305 -30.412229 0.008054 7.792239 1.578377 0.113930 -0.083140 -0.068589 -0.000000 0.000000 0.000000 0.000000 0.000000 0.000000 0.000000 19.854693 -0.705288 -2.143052 66.250733 10.731280 5.175616 0.376230 78.216573 -0.033071 -6.415468 7.278869 -0.434425 0.068485 -0.413769 0.000000 0.000000 0.000000 0.000000 0.000000 0.000000 0.000000 
2.889620 16.991671 1.452507 -34.225465 75.933139 -23.128142 -10.743893 -0.484684 4.500579 0.497328 2.365642 -44.767359 0.020994 0.984738 34.944773 3.412204 17.201715 -6.236307 1.224400 -0.000000 -24.507200 6.442492 -2.567625 4.754645 23.532231 6.048056 0.093107 4.869414 2.689935 -3.435371 0.195013 4.487065 -9.695402 -180.000000 -0.000000 -8.403400 5.281059 1.273356 -10.790228 -0.343940 0.125441 -5.025309 -8.655063 0.113692 0.132193 12.386336 -7.782989 -6.906636 -4.306490 -0.365700 0.272211 0.000000 0.000000 0.000000 -1.679080 13.928920 1.299379 -59.131876 12.517070 4.959347 -3.085079 -30.717403 0.007905 7.583919 1.771319 0.124147 -0.088946 -0.072573 -0.000000 0.000000 0.000000 0.000000 0.000000 0.000000 0.000000 19.667391 -0.141013 -2.143647 66.023815 11.312228 5.537209 0.376288 78.695846 -0.033887 -6.375005 7.212896 -0.428205 0.066307 -0.420918 0.000000 0.000000 0.000000 0.000000 0.000000 0.000000 0.000000 
3.054126 16.965885 1.468984 -34.528938 76.284466 -23.606453 -10.696396 -0.502116 4.511761 -0.055632 2.587439 -45.104851 -0.120822 0.846963 32.524623 3.180398 16.055004 -5.109227 1.495200 0.000000 -25.667700 6.477515 -2.644100 4.499735 23.418489 5.289806 0.810158 4.843840 2.635472 -3.108245 0.188068 4.783569 -10.297404 179.997400 0.000000 -8.052900 5.061090 1.517432 -10.574263 -0.417295 0.407135 -4.996095 -8.683560 0.397703 0.115897 12.371300 -7.412587 -6.877372 -4.274817 -0.362481 0.274918 0.000000 0.000000 0.000000 -1.600224 14.578021 1.329130 -58.205017 12.535961 4.806478 -3.133404 -30.944078 0.007731 7.456261 1.927645 0.132763 -0.094695 -0.075573 -0.000000 0.000000 0.000000 0.000000 0.000000 0.000000 0.000000 19.454502 0.417611 -2.154564 65.763464 11.861627 5.850773 0.375355 79.184908 -0.034751 -6.339148 7.152456 -0.422595 0.063821 -0.427834 0.000000 0.000000 0.000000 0.000000 0.000000 0.000000 0.000000 
3.219145 16.938123 1.483919 -34.906480 76.665649 -24.205834 -10.654954 -0.505373 4.507370 -0.670168 2.806341 -45.322596 -0.284937 0.708221 30.077048 2.922233 14.819297 -4.022468 1.694600 0.000000 -26.862900 6.520242 -2.724838 4.218117 23.275888 4.420523 1.599735 4.820599 2.579222 -2.827272 0.193410 5.156097 -10.835563 179.989000 0.000000 -7.635100 4.856610 1.748939 -10.313682 -0.484908 0.677102 -4.959877 -8.705229 0.670365 0.092722 12.340010 -7.062063 -6.844234 -4.242638 -0.359228 0.278698 0.000000 0.000000 0.000000 -1.533326 15.162659 1.359553 -57.315535 12.593873 4.549804 -3.172538 -31.248188 0.007605 7.398025 2.071644 0.141479 -0.100022 -0.078302 -0.000000 0.000000 0.000000 0.000000 0.000000 0.000000 0.000000 19.226638 0.942709 -2.160044 65.473311 12.406722 6.150235 0.375158 79.657698 -0.035572 -6.302939 7.108824 -0.417991 0.061383 -0.434643 0.000000 0.000000 0.000000 0.000000 0.000000 0.000000 0.000000 
3.385697 16.908112 1.496838 -35.445708 77.057044 -24.972119 -10.621468 -0.503648 4.500259 -1.306183 3.014906 -45.483149 -0.466576 0.567572 27.636552 2.645791 13.514905 -2.996751 1.821600 0.000000 -28.164200 6.558912 -2.808884 3.936540 23.134298 3.530725 2.425726 4.801644 2.526309 -2.598690 0.202131 5.541820 -11.324106 179.974500 0.000000 -7.233500 4.689940 1.974197 -10.047618 -0.541908 0.936730 -4.919137 -8.717221 0.933806 0.084066 12.294569 -6.710721 -6.822242 -4.207538 -0.355614 0.279357 0.000000 0.000000 0.000000 -1.443436 15.806784 1.389407 -56.501213 12.527638 4.232269 -3.208062 -31.499682 0.007500 7.404256 2.176836 0.148696 -0.105285 -0.080136 -0.000000 0.000000 0.000000 0.000000 0.000000 0.000000 0.000000 18.973459 1.461759 -2.175029 65.147073 12.915283 6.423058 0.373930 80.145703 -0.036348 -6.256787 7.082297 -0.413696 0.058487 -0.441344 0.000000 0.000000 0.000000 0.000000 0.000000 0.000000 0.000000 
3.553288 16.876230 1.508422 -36.075614 77.461744 -25.851016 -10.591531 -0.497478 4.486830 -1.974220 3.209027 -45.563907 -0.667410 0.423490 25.210003 2.357158 12.161495 -2.069130 1.872300 -0.000000 -29.455400 6.600324 -2.895040 3.643552 22.967624 2.580595 3.301926 4.784664 2.474963 -2.420505 0.218936 5.968113 -11.758520 179.952299 0.000000 -6.813500 4.543657 2.190681 -9.760595 -0.592645 1.186256 -4.875626 -8.724381 1.187294 0.069884 12.237663 -6.377673 -6.798227 -4.172885 -0.352097 0.280759 0.000000 0.000000 0.000000 -1.367350 16.395113 1.418635 -55.720199 12.517035 3.829651 -3.234111 -31.848756 0.007458 7.452835 2.267781 0.155913 -0.110199 -0.081817 -0.000000 0.000000 0.000000 0.000000 0.000000 0.000000 0.000000 18.713880 1.954179 -2.184247 64.791724 13.407826 6.691888 0.373326 80.625759 -0.036998 -6.196072 7.079763 -0.409705 0.055456 -0.448051 0.000000 0.000000 0.000000 0.000000 0.000000 0.000000 0.000000 
3.722825 16.842493 1.518572 -36.848762 77.865154 -26.860559 -10.565060 -0.492611 4.477555 -2.653675 3.391504 -45.621824 -0.884398 0.274298 22.817037 2.062945 10.772914 -1.252463 1.854500 -0.000001 -30.779200 6.636106 -2.982727 3.361663 22.798663 1.644189 4.192350 4.770243 2.428672 -2.289491 0.236335 6.379779 -12.155335 179.923600 -0.000000 -6.424300 4.427359 2.402904 -9.487242 -0.635287 1.427078 -4.831352 -8.725869 1.432834 0.069753 12.175352 -6.051473 -6.786829 -4.137107 -0.348415 0.278802 0.000000 0.000000 0.000000 -1.275892 17.034832 1.445209 -54.996256 12.419776 3.381675 -3.256229 -32.186124 0.007437 7.531021 2.322271 0.161333 -0.115110 -0.082853 -0.000000 0.000000 0.000000 0.000000 0.000000 0.000000 0.000000 18.447417 2.436385 -2.200041 64.405855 13.864482 6.947307 0.372526 81.117589 -0.037526 -6.116340 7.097495 -0.405519 0.051944 -0.454690 0.000000 0.000000 0.000000 0.000000 0.000000 0.000000 0.000000 
3.894472 16.807291 1.527782 -37.730097 78.266018 -27.963074 -10.538702 -0.489508 4.473741 -3.354343 3.568310 -45.666569 -1.118279 0.117790 20.458326 1.767144 9.358036 -0.559690 1.775200 0.000000 -32.103900 6.668353 -3.071537 3.092558 22.618533 0.721476 5.088129 4.756827 2.387145 -2.199394 0.254705 6.774432 -12.516968 179.888900 0.000000 -6.028700 4.329930 2.610448 -9.232203 -0.672752 1.659697 -4.787792 -8.724734 1.670643 0.081366 12.113126 -5.739133 -6.787275 -4.101603 -0.344708 0.273762 0.000000 0.000000 0.000000 -1.178559 17.709951 1.467889 -54.309642 12.269451 2.896614 -3.274001 -32.545411 0.007437 7.618905 2.345978 0.164953 -0.120023 -0.083466 -0.000000 0.000000 0.000000 0.000000 0.000000 0.000000 0.000000 18.187645 2.902009 -2.219291 63.996027 14.291067 7.196207 0.372342 81.611961 -0.037912 -6.017482 7.134025 -0.401036 0.048058 -0.461229 0.000000 0.000000 0.000000 0.000000 0.000000 0.000000 0.000000 
4.068555 16.771046 1.536339 -38.694943 78.661370 -29.126170 -10.510067 -0.488566 4.477863 -4.085749 3.747688 -45.714854 -1.369469 -0.048427 18.131842 1.472041 7.919123 0.008308 1.644100 0.000000 -33.409700 6.697139 -3.161223 2.842746 22.424742 -0.170504 5.974236 4.743148 2.350412 -2.142670 0.272762 7.138875 -12.846938 179.849800 -0.000000 -5.599800 4.245576 2.813584 -9.006312 -0.706903 1.884308 -4.748588 -8.724055 1.900429 0.098651 12.054123 -5.440299 -6.794267 -4.068015 -0.341201 0.267252 0.000000 0.000000 0.000000 -1.088847 18.392234 1.485989 -53.639229 12.122580 2.375231 -3.286429 -32.970760 0.007455 7.695817 2.347314 0.166877 -0.124910 -0.083950 -0.000000 0.000000 0.000000 0.000000 0.000000 0.000000 0.000000 17.944220 3.352769 -2.238525 63.570961 14.680605 7.439616 0.373342 82.101972 -0.038149 -5.901884 7.184221 -0.396054 0.043920 -0.467600 0.000000 0.000000 0.000000 0.000000 0.000000 0.000000 0.000000 
4.245348 16.734182 1.544620 -39.703896 79.051163 -30.308977 -10.476387 -0.488938 4.490235 -4.862031 3.937275 -45.771447 -1.638358 -0.226526 15.832803 1.178323 6.453802 0.460546 1.470800 0.000000 -34.705301 6.724921 -3.251748 2.614399 22.208478 -1.030756 6.843174 4.727781 2.317725 -2.113591 0.291139 7.474148 -13.140872 179.807500 -0.000000 -5.077300 4.164538 3.011670 -8.813719 -0.740240 2.101058 -4.714661 -8.726048 2.122189 0.121432 12.002692 -5.155170 -6.807457 -4.037168 -0.337966 0.259364 0.000000 0.000000 0.000000 -1.011710 19.084169 1.498638 -52.970619 11.983871 1.827640 -3.294253 -33.466135 0.007484 7.747308 2.327966 0.166802 -0.129819 -0.084410 -0.000000 0.000000 0.000000 0.000000 0.000000 0.000000 0.000000 17.726346 3.789290 -2.257526 63.140190 15.032618 7.677278 0.376025 82.578849 -0.038252 -5.773847 7.241299 -0.390471 0.039626 -0.473688 0.000000 0.000000 0.000000 0.000000 0.000000 0.000000 0.000000 
